# xmcd
#
# Track frame offsets:
# 150
# 12351
# 24984
# 34928
# 51810
# 65724
# 78788
# 93914
# 109612
# 126382
# 138638
# 157373
#
# Disc length: 2329 seconds
#
#
# Revision: 0
# Processed by: cddbd v1.5.2PL0 Copyright (c) Steve Scherf et al.
# Submitted via: FreeRIP 2.951 
#
DISCID=a109170c
DTITLE=Rychtari - Hospoda u vetraku
DYEAR=1995
DGENRE=Bluegrass
TTITLE0=Tak jen se smej
TTITLE1=Kabat po dedovi
TTITLE2=Mila ma
TTITLE3=Krysar
TTITLE4=Tajna prani
TTITLE5=Rokec
TTITLE6=Vrak c.6
TTITLE7=Tem, kteri se vratili
TTITLE8=Posledni listek
TTITLE9=Noc zla
TTITLE10=Mejdan
TTITLE11=Hospoda u vetraku
EXTD=
EXTT0=
EXTT1=
EXTT2=
EXTT3=
EXTT4=
EXTT5=
EXTT6=
EXTT7=
EXTT8=
EXTT9=
EXTT10=
EXTT11=
PLAYORDER=
